<svg xmlns="http://www.w3.org/2000/svg" xmlns:xlink="http://www.w3.org/1999/xlink" width="186.956" height="136.849" viewBox="0 0 186.956 136.849">
  <defs>
    <linearGradient id="linear-gradient" x1="1" y1="1" x2="0" gradientUnits="objectBoundingBox">
      <stop offset="0" stop-color="#1661be"/>
      <stop offset="0.233" stop-color="#1b6ed3"/>
      <stop offset="0.395" stop-color="#1763bf"/>
      <stop offset="0.595" stop-color="#487cba"/>
      <stop offset="0.745" stop-color="#16549d"/>
      <stop offset="1" stop-color="#0e4180"/>
    </linearGradient>
  </defs>
  <g id="Group_24" data-name="Group 24" transform="translate(-147.795 -104.695)">
    <g id="Group_18" data-name="Group 18" transform="translate(147.795 120.15)">
      <g id="Group_17" data-name="Group 17" transform="translate(0 0)">
        <g id="Group_7" data-name="Group 7" transform="translate(0)">
          <g id="Group_4" data-name="Group 4">
            <path id="Union_1" data-name="Union 1" d="M24.39,18.911a45.5,45.5,0,1,0,26.879-4.743C42.189,11.293,21.831,0,19.169,0,16.484,0,27.671,14.018,24.39,18.911Z" transform="translate(90.867 104.663) rotate(180)" fill="url(#linear-gradient)"/>
          </g>
        </g>
      </g>
    </g>
    <text id="S" transform="translate(175.418 199.695)" fill="#fff" font-size="102" font-family="Rubik-Medium, Rubik" font-weight="500" letter-spacing="-0.013em"><tspan x="0" y="0">S</tspan></text>
    <text id="Er" transform="translate(230.648 197.061)" fill="#2a64a9" font-size="43" font-family="Rubik-Regular, Rubik" letter-spacing="-0.013em"><tspan x="0" y="0">er</tspan></text>
    <g id="Group_21" data-name="Group 21" transform="translate(234.574 188.456)">
      <g id="Group_19" data-name="Group 19" transform="translate(0.629 -19.439)">
        <g id="Group_15" data-name="Group 15" transform="translate(0.073 18.953)">
          <path id="VO_z" data-name="VO   z" d="M11.018,40.191a1.921,1.921,0,0,1-.521-.068,1.509,1.509,0,0,1-.44-.2,1.588,1.588,0,0,1-.359-.338,2.18,2.18,0,0,1-.278-.473L1.426,19.064l-.086-.432a1.04,1.04,0,0,1,.016-.186.881.881,0,0,1,.049-.17.837.837,0,0,1,.081-.154.926.926,0,0,1,.251-.251.838.838,0,0,1,.154-.081.881.881,0,0,1,.17-.049,1.04,1.04,0,0,1,.186-.016H4.321a1.234,1.234,0,0,1,.343.046,1.024,1.024,0,0,1,.294.138,1.133,1.133,0,0,1,.246.23,1.593,1.593,0,0,1,.2.321l6.567,17.023,6.567-17.023a1.909,1.909,0,0,1,.211-.321,1.26,1.26,0,0,1,.243-.23.988.988,0,0,1,.275-.138,1.019,1.019,0,0,1,.308-.046h2.117a.872.872,0,0,1,.169.016.847.847,0,0,1,.161.049.922.922,0,0,1,.153.081,1.108,1.108,0,0,1,.144.113.923.923,0,0,1,.123.138.817.817,0,0,1,.088.154.83.83,0,0,1,.053.17.962.962,0,0,1,.018.186l-.086.432L14.474,39.111a2.18,2.18,0,0,1-.278.473,1.588,1.588,0,0,1-.359.338,1.509,1.509,0,0,1-.44.2,1.921,1.921,0,0,1-.521.068Zm23.936.432a14.306,14.306,0,0,1-2.243-.167,10.661,10.661,0,0,1-1.975-.5,8.673,8.673,0,0,1-1.708-.837,8.076,8.076,0,0,1-1.441-1.172,9.145,9.145,0,0,1-1.154-1.45,9.463,9.463,0,0,1-.849-1.672,10.964,10.964,0,0,1-.544-1.893,13.815,13.815,0,0,1-.239-2.114l-.043-1.858L24.8,27.1a13.508,13.508,0,0,1,.24-2.1,10.854,10.854,0,0,1,.548-1.884,9.51,9.51,0,0,1,.856-1.67,9.328,9.328,0,0,1,1.164-1.457,8.232,8.232,0,0,1,1.447-1.181,8.707,8.707,0,0,1,1.707-.844,10.545,10.545,0,0,1,1.966-.506,14.752,14.752,0,0,1,4.45,0,10.545,10.545,0,0,1,1.966.506,8.707,8.707,0,0,1,1.707.844A8.232,8.232,0,0,1,42.3,19.993a9.328,9.328,0,0,1,1.164,1.457,9.51,9.51,0,0,1,.856,1.67A10.854,10.854,0,0,1,44.867,25a13.508,13.508,0,0,1,.24,2.1q.011.119.019.294t.014.408q.005.232.008.521t0,.635q0,.346,0,.635t-.008.521q-.005.232-.014.408t-.019.294a13.815,13.815,0,0,1-.239,2.114,10.964,10.964,0,0,1-.544,1.893,9.463,9.463,0,0,1-.849,1.672,9.145,9.145,0,0,1-1.154,1.45,8.076,8.076,0,0,1-1.441,1.172,8.673,8.673,0,0,1-1.708.837,10.661,10.661,0,0,1-1.975.5A14.306,14.306,0,0,1,34.954,40.623Zm0-3.327a7.379,7.379,0,0,0,1.289-.108,5.763,5.763,0,0,0,1.146-.324,5.046,5.046,0,0,0,1-.54,5.124,5.124,0,0,0,.86-.756,5.476,5.476,0,0,0,.7-.959,6.544,6.544,0,0,0,.517-1.148,8.582,8.582,0,0,0,.336-1.337,11.814,11.814,0,0,0,.155-1.526q.011-.108.019-.265t.014-.362q.005-.205.008-.459t0-.556q0-.3,0-.556t-.008-.459q-.005-.205-.014-.362t-.019-.265A11.814,11.814,0,0,0,40.8,25.79a8.582,8.582,0,0,0-.336-1.337,6.544,6.544,0,0,0-.517-1.148,5.476,5.476,0,0,0-.7-.959,5.124,5.124,0,0,0-.86-.756,5.046,5.046,0,0,0-1-.54,5.763,5.763,0,0,0-1.146-.324,7.758,7.758,0,0,0-2.58,0,5.82,5.82,0,0,0-1.15.324,5.125,5.125,0,0,0-1.01.54,5.219,5.219,0,0,0-.87.756,5.373,5.373,0,0,0-.7.959,6.349,6.349,0,0,0-.516,1.148,8.3,8.3,0,0,0-.327,1.337,11.437,11.437,0,0,0-.138,1.526L28.9,28.958l.043,1.642a11.438,11.438,0,0,0,.138,1.526,8.3,8.3,0,0,0,.327,1.337,6.349,6.349,0,0,0,.516,1.148,5.374,5.374,0,0,0,.7.959,5.219,5.219,0,0,0,.87.756,5.125,5.125,0,0,0,1.01.54,5.82,5.82,0,0,0,1.15.324A7.4,7.4,0,0,0,34.954,37.3Zm44.675,2.895a1.177,1.177,0,0,1-.207-.018.979.979,0,0,1-.188-.053.91.91,0,0,1-.169-.088.983.983,0,0,1-.273-.273.91.91,0,0,1-.088-.169.979.979,0,0,1-.053-.188,1.177,1.177,0,0,1-.018-.207V37.685a1.27,1.27,0,0,1,.012-.174,1.4,1.4,0,0,1,.036-.177,1.623,1.623,0,0,1,.061-.18,1.94,1.94,0,0,1,.085-.182q.049-.092.1-.18t.1-.171q.051-.084.1-.163t.107-.155L91.164,21.138H80.017a1.177,1.177,0,0,1-.207-.018.979.979,0,0,1-.188-.053.91.91,0,0,1-.169-.088.983.983,0,0,1-.273-.273.91.91,0,0,1-.088-.169.979.979,0,0,1-.053-.188,1.177,1.177,0,0,1-.018-.207V18.718a1.177,1.177,0,0,1,.018-.207.979.979,0,0,1,.053-.188.91.91,0,0,1,.088-.169.983.983,0,0,1,.273-.273.91.91,0,0,1,.169-.088.979.979,0,0,1,.188-.053,1.177,1.177,0,0,1,.207-.018H95.4a1.177,1.177,0,0,1,.207.018.979.979,0,0,1,.188.053.91.91,0,0,1,.169.088.983.983,0,0,1,.273.273.91.91,0,0,1,.088.169.979.979,0,0,1,.053.188,1.177,1.177,0,0,1,.018.207v1.6a1.239,1.239,0,0,1-.012.173,1.314,1.314,0,0,1-.036.173,1.465,1.465,0,0,1-.061.173,1.7,1.7,0,0,1-.085.173q-.049.086-.1.17t-.1.165q-.051.081-.1.159t-.107.154l-11.8,15.122h12.27a1.475,1.475,0,0,1,.224.016,1.089,1.089,0,0,1,.2.049.871.871,0,0,1,.17.081.794.794,0,0,1,.257.257.871.871,0,0,1,.081.17,1.088,1.088,0,0,1,.049.2,1.474,1.474,0,0,1,.016.224V39.2a1.176,1.176,0,0,1-.018.207.979.979,0,0,1-.053.188.911.911,0,0,1-.088.169.983.983,0,0,1-.273.273.911.911,0,0,1-.169.088.979.979,0,0,1-.188.053,1.177,1.177,0,0,1-.207.018Z" fill="#3e84d8"/>
        </g>
      </g>
      <g id="Group_20" data-name="Group 20" transform="translate(46.7 3.848)">
        <path id="Path_41" data-name="Path 41" d="M0,0S9.147-.211,12.022,11.107s-5,16.295-5,16.295" transform="translate(6.164 9.783) rotate(13)" fill="none" stroke="#83bbff" stroke-width="5"/>
        <path id="Path_42" data-name="Path 42" d="M0,0S15.479,4.652,17.878,19.827a28.288,28.288,0,0,1-6.992,24.1" transform="translate(14.797 0) rotate(13)" fill="none" stroke="#83bbff" stroke-width="5"/>
        <path id="Path_43" data-name="Path 43" d="M0,0A25.18,25.18,0,0,1,5.266,2.386a22.994,22.994,0,0,1,4.858,3.592" transform="translate(14.797 0) rotate(13)" fill="none" stroke="#0f4586" stroke-width="5"/>
        <path id="Path_44" data-name="Path 44" d="M0,0A15.553,15.553,0,0,1,2.9,1.084,12.684,12.684,0,0,1,5.575,2.716" transform="translate(14.797 0) rotate(13)" fill="none" stroke="#0f4586" stroke-width="5"/>
      </g>
    </g>
  </g>
</svg>
