<svg xmlns="http://www.w3.org/2000/svg" xmlns:xlink="http://www.w3.org/1999/xlink" width="38" height="38" viewBox="0 0 38 38">
  <defs>
    <clipPath id="clip-path">
      <rect id="Rectangle_408" data-name="Rectangle 408" width="38" height="38" transform="translate(55 422)" fill="#6e6e6e" stroke="#707070" stroke-width="1"/>
    </clipPath>
  </defs>
  <g id="Mask_Group_53" data-name="Mask Group 53" transform="translate(-55 -422)" clip-path="url(#clip-path)">
    <g id="customer_2_" data-name="customer (2)" transform="translate(55 422)">
      <path id="Path_18410" data-name="Path 18410" d="M19,15.363a6.457,6.457,0,1,0-6.457-6.457A6.464,6.464,0,0,0,19,15.363ZM19,4.676a4.23,4.23,0,1,1-4.23,4.23A4.235,4.235,0,0,1,19,4.676Z" fill="#6e6e6e"/>
      <path id="Path_18411" data-name="Path 18411" d="M32.062,15.363a4.082,4.082,0,1,0-4.082-4.082A4.087,4.087,0,0,0,32.062,15.363Zm0-5.937a1.855,1.855,0,1,1-1.855,1.855A1.858,1.858,0,0,1,32.062,9.426Z" fill="#6e6e6e"/>
      <path id="Path_18412" data-name="Path 18412" d="M32.96,17.887H31.239a5.047,5.047,0,0,0-4.579,2.921,8.96,8.96,0,0,0-6.622-2.921H17.963a8.96,8.96,0,0,0-6.622,2.921,5.047,5.047,0,0,0-4.579-2.921H5.039A5.03,5.03,0,0,0,0,22.9V31a2.181,2.181,0,0,0,2.183,2.175H8.991a2.6,2.6,0,0,0,2.589,2.375H26.42a2.6,2.6,0,0,0,2.589-2.375h6.73A2.259,2.259,0,0,0,38,30.924V22.9a5.03,5.03,0,0,0-5.04-5.009ZM2.227,22.9a2.8,2.8,0,0,1,2.813-2.782H6.761A2.8,2.8,0,0,1,9.574,22.9v.762c-.749,1.949-.594,3.117-.594,7.291H2.227ZM26.793,32.951a.373.373,0,0,1-.373.373H11.58a.373.373,0,0,1-.373-.373V26.869a6.763,6.763,0,0,1,6.755-6.756h2.075a6.763,6.763,0,0,1,6.756,6.755Zm8.98-2.028c0,.038.415.025-6.754.025,0-4.2.154-5.345-.594-7.291V22.9a2.8,2.8,0,0,1,2.813-2.782H32.96A2.8,2.8,0,0,1,35.773,22.9Z" fill="#6e6e6e"/>
      <path id="Path_18413" data-name="Path 18413" d="M5.937,15.363a4.082,4.082,0,1,0-4.082-4.082A4.087,4.087,0,0,0,5.937,15.363Zm0-5.937a1.855,1.855,0,1,1-1.855,1.855A1.858,1.858,0,0,1,5.937,9.426Z" fill="#6e6e6e"/>
    </g>
  </g>
</svg>
