<svg xmlns="http://www.w3.org/2000/svg" xmlns:xlink="http://www.w3.org/1999/xlink" width="38" height="38" viewBox="0 0 38 38">
  <defs>
    <clipPath id="clip-path">
      <rect id="Rectangle_609" data-name="Rectangle 609" width="38" height="38" transform="translate(55 365)" fill="#6e6e6e" stroke="#707070" stroke-width="1"/>
    </clipPath>
  </defs>
  <g id="Mask_Group_66" data-name="Mask Group 66" transform="translate(-55 -365)" clip-path="url(#clip-path)">
    <g id="dashboard_1_" data-name="dashboard (1)" transform="translate(55 365)">
      <path id="Path_20416" data-name="Path 20416" d="M14.646,12.667H2.771A2.774,2.774,0,0,1,0,9.9V2.771A2.774,2.774,0,0,1,2.771,0H14.646a2.774,2.774,0,0,1,2.771,2.771V9.9A2.774,2.774,0,0,1,14.646,12.667ZM2.771,2.375a.4.4,0,0,0-.4.4V9.9a.4.4,0,0,0,.4.4H14.646a.4.4,0,0,0,.4-.4V2.771a.4.4,0,0,0-.4-.4Zm0,0" fill="#6e6e6e"/>
      <path id="Path_20417" data-name="Path 20417" d="M14.646,38H2.771A2.774,2.774,0,0,1,0,35.229V18.6a2.774,2.774,0,0,1,2.771-2.771H14.646A2.774,2.774,0,0,1,17.417,18.6V35.229A2.774,2.774,0,0,1,14.646,38ZM2.771,18.208a.4.4,0,0,0-.4.4V35.229a.4.4,0,0,0,.4.4H14.646a.4.4,0,0,0,.4-.4V18.6a.4.4,0,0,0-.4-.4Zm0,0" fill="#6e6e6e"/>
      <path id="Path_20418" data-name="Path 20418" d="M35.229,38H23.354a2.774,2.774,0,0,1-2.771-2.771V28.1a2.774,2.774,0,0,1,2.771-2.771H35.229A2.774,2.774,0,0,1,38,28.1v7.125A2.774,2.774,0,0,1,35.229,38ZM23.354,27.708a.4.4,0,0,0-.4.4v7.125a.4.4,0,0,0,.4.4H35.229a.4.4,0,0,0,.4-.4V28.1a.4.4,0,0,0-.4-.4Zm0,0" fill="#6e6e6e"/>
      <path id="Path_20419" data-name="Path 20419" d="M35.229,22.167H23.354A2.774,2.774,0,0,1,20.583,19.4V2.771A2.774,2.774,0,0,1,23.354,0H35.229A2.774,2.774,0,0,1,38,2.771V19.4A2.774,2.774,0,0,1,35.229,22.167ZM23.354,2.375a.4.4,0,0,0-.4.4V19.4a.4.4,0,0,0,.4.4H35.229a.4.4,0,0,0,.4-.4V2.771a.4.4,0,0,0-.4-.4Zm0,0" fill="#6e6e6e"/>
    </g>
  </g>
</svg>
