<svg xmlns="http://www.w3.org/2000/svg" xmlns:xlink="http://www.w3.org/1999/xlink" width="38" height="38" viewBox="0 0 38 38">
  <defs>
    <clipPath id="clip-path">
      <rect id="Rectangle_412" data-name="Rectangle 412" width="38" height="38" transform="translate(55 487)" fill="#6e6e6e" stroke="#707070" stroke-width="1"/>
    </clipPath>
  </defs>
  <g id="Mask_Group_57" data-name="Mask Group 57" transform="translate(-55 -487)" clip-path="url(#clip-path)">
    <path id="device" d="M35.773,15.019V11.5a2.588,2.588,0,0,0-.742-1.815V4.082A4.087,4.087,0,0,0,30.949,0H4.082A4.087,4.087,0,0,0,0,4.082V21.895a4.087,4.087,0,0,0,4.082,4.082H12.26L11.518,28.2h-.682a3.344,3.344,0,0,0-3.34,3.34V33.77a1.113,1.113,0,0,0,1.113,1.113h8.86a2.6,2.6,0,0,0,2.347,1.484h4.269A2.6,2.6,0,0,0,26.5,38H35.4A2.6,2.6,0,0,0,38,35.4V17.59A2.6,2.6,0,0,0,35.773,15.019Zm-16.328,14.3V11.5a.371.371,0,0,1,.371-.371H33.176a.371.371,0,0,1,.371.371v3.488H26.5a2.6,2.6,0,0,0-2.6,2.6v12.1H19.445Zm6.68-11.727a.371.371,0,0,1,.371-.371H35.4a.371.371,0,0,1,.371.371V31.32H26.125ZM4.082,2.227H30.949A1.858,1.858,0,0,1,32.8,4.082V8.906H19.816a2.6,2.6,0,0,0-2.6,2.6V19.3H2.227V4.082A1.858,1.858,0,0,1,4.082,2.227ZM2.227,21.895v-.371H17.219V23.75H4.082A1.858,1.858,0,0,1,2.227,21.895Zm12.381,4.082h2.612V28.2H13.865ZM9.723,31.543a1.115,1.115,0,0,1,1.113-1.113h6.383v2.227h-7.5Zm9.723,2.227V31.914H23.9v2.227H19.816A.371.371,0,0,1,19.445,33.77Zm15.957,2H26.5a.371.371,0,0,1-.371-.371V33.547h9.648V35.4A.371.371,0,0,1,35.4,35.773Zm0,0" transform="translate(55 487)" fill="#6e6e6e"/>
  </g>
</svg>
