<svg xmlns="http://www.w3.org/2000/svg" xmlns:xlink="http://www.w3.org/1999/xlink" width="38" height="38" viewBox="0 0 38 38">
  <defs>
    <clipPath id="clip-path">
      <rect id="Rectangle_413" data-name="Rectangle 413" width="38" height="38" rx="2" transform="translate(58 559)" fill="#6e6e6e" stroke="#6e6e6e" stroke-width="1"/>
    </clipPath>
  </defs>
  <g id="Mask_Group_58" data-name="Mask Group 58" transform="translate(-58 -559)" clip-path="url(#clip-path)">
    <g id="calendar_3_" data-name="calendar (3)" transform="translate(59 560.53)">
      <path id="Path_18436" data-name="Path 18436" d="M33.118,23.188V7a2.919,2.919,0,0,0-2.951-2.879h-1.18V2.973a1.771,1.771,0,0,0-3.541,0V4.125H22.494V2.973a1.771,1.771,0,0,0-3.541,0V4.125H15.411V2.973a1.771,1.771,0,0,0-3.541,0V4.125H8.919V2.973a1.771,1.771,0,0,0-3.541,0V4.125H4.2A2.919,2.919,0,0,0,1.246,7V30.038A2.919,2.919,0,0,0,4.2,32.917H24.043a7.114,7.114,0,0,0,6.125,3.455,7.006,7.006,0,0,0,7.083-6.91A6.907,6.907,0,0,0,33.118,23.188ZM26.626,2.973a.59.59,0,0,1,1.18,0V6.428a.59.59,0,0,1-1.18,0Zm-6.493,0a.59.59,0,0,1,1.18,0V6.428a.59.59,0,0,1-1.18,0Zm-7.083,0a.59.59,0,0,1,1.18,0V6.428a.59.59,0,0,1-1.18,0Zm-6.493,0a.59.59,0,0,1,1.18,0V6.428a.59.59,0,0,1-1.18,0ZM4.2,5.277h1.18V6.428a1.771,1.771,0,0,0,3.541,0V5.277H11.87V6.428a1.771,1.771,0,0,0,3.541,0V5.277h3.541V6.428a1.771,1.771,0,0,0,3.541,0V5.277h2.951V6.428a1.771,1.771,0,0,0,3.541,0V5.277h1.18A1.751,1.751,0,0,1,31.938,7V9.883H2.426V7A1.751,1.751,0,0,1,4.2,5.277Zm0,26.489a1.751,1.751,0,0,1-1.771-1.728v-19H31.938V22.779a6.9,6.9,0,0,0-2.951-.123V19.673a.583.583,0,0,0-.59-.576H24.855a.583.583,0,0,0-.59.576v3.455a.583.583,0,0,0,.59.576H26.26a6.865,6.865,0,0,0-3.176,5.758,6.715,6.715,0,0,0,.413,2.3Zm23.609-9.213H25.445v-2.3h2.361ZM30.167,35.22a5.76,5.76,0,1,1,5.9-5.758A5.839,5.839,0,0,1,30.167,35.22Z" transform="translate(-1.246 -1.246)" fill="#1976d2" stroke="#1976d2" stroke-width="0.62"/>
      <path id="Path_18437" data-name="Path 18437" d="M32.01,30.334V26.787H30.88v3.547a1.079,1.079,0,0,0-.548,1.14l-2.065,1.652.706.883,2.063-1.651a1.126,1.126,0,0,0,.974-2.024Z" transform="translate(-2.509 -2.962)" fill="#1976d2"/>
      <path id="Path_18438" data-name="Path 18438" d="M8.939,13.7H5.549a.565.565,0,0,0-.565.565v3.39a.565.565,0,0,0,.565.565h3.39A.565.565,0,0,0,9.5,17.66V14.27A.565.565,0,0,0,8.939,13.7ZM8.374,17.1H6.114v-2.26h2.26Z" transform="translate(-1.593 -2.156)" fill="#1976d2" stroke="#1976d2" stroke-width="0.623"/>
      <path id="Path_18439" data-name="Path 18439" d="M15.792,13.7H12.4a.565.565,0,0,0-.565.565v3.39a.565.565,0,0,0,.565.565h3.39a.565.565,0,0,0,.565-.565V14.27A.565.565,0,0,0,15.792,13.7Zm-.565,3.39h-2.26v-2.26h2.26Z" transform="translate(-1.738 -2.156)" fill="#1976d2" stroke="#1976d2" stroke-width="0.623"/>
      <path id="Path_18440" data-name="Path 18440" d="M22.644,13.7h-3.39a.565.565,0,0,0-.565.565v3.39a.565.565,0,0,0,.565.565h3.39a.565.565,0,0,0,.565-.565V14.27A.565.565,0,0,0,22.644,13.7Zm-.565,3.39h-2.26v-2.26h2.26Z" transform="translate(-2.056 -2.156)" fill="#1976d2" stroke="#1976d2" stroke-width="0.623"/>
      <path id="Path_18441" data-name="Path 18441" d="M26.106,18.226H29.5a.565.565,0,0,0,.565-.565V14.27A.565.565,0,0,0,29.5,13.7h-3.39a.565.565,0,0,0-.565.565v3.39A.565.565,0,0,0,26.106,18.226Zm.565-3.39h2.26V17.1h-2.26Z" transform="translate(-2.374 -2.156)" fill="#1976d2" stroke="#1976d2" stroke-width="0.623"/>
      <path id="Path_18442" data-name="Path 18442" d="M8.939,20.557H5.549a.565.565,0,0,0-.565.565v3.39a.565.565,0,0,0,.565.565h3.39a.565.565,0,0,0,.565-.565v-3.39A.565.565,0,0,0,8.939,20.557Zm-.565,3.39H6.114v-2.26h2.26Z" transform="translate(-1.593 -2.656)" fill="#1976d2" stroke="#1976d2" stroke-width="0.623"/>
      <path id="Path_18443" data-name="Path 18443" d="M15.792,20.557H12.4a.565.565,0,0,0-.565.565v3.39a.565.565,0,0,0,.565.565h3.39a.565.565,0,0,0,.565-.565v-3.39A.565.565,0,0,0,15.792,20.557Zm-.565,3.39h-2.26v-2.26h2.26Z" transform="translate(-1.738 -2.656)" fill="#1976d2" stroke="#1976d2" stroke-width="0.623"/>
      <path id="Path_18444" data-name="Path 18444" d="M22.644,20.557h-3.39a.565.565,0,0,0-.565.565v3.39a.565.565,0,0,0,.565.565h3.39a.565.565,0,0,0,.565-.565v-3.39A.565.565,0,0,0,22.644,20.557Zm-.565,3.39h-2.26v-2.26h2.26Z" transform="translate(-2.056 -2.656)" fill="#1976d2" stroke="#1976d2" stroke-width="0.623"/>
      <path id="Path_18445" data-name="Path 18445" d="M8.939,27.41H5.549a.565.565,0,0,0-.565.565v3.39a.565.565,0,0,0,.565.565h3.39a.565.565,0,0,0,.565-.565v-3.39A.565.565,0,0,0,8.939,27.41ZM8.374,30.8H6.114V28.54h2.26Z" transform="translate(-1.593 -3.156)" fill="#1976d2" stroke="#1976d2" stroke-width="0.623"/>
      <path id="Path_18446" data-name="Path 18446" d="M15.792,27.41H12.4a.565.565,0,0,0-.565.565v3.39a.565.565,0,0,0,.565.565h3.39a.565.565,0,0,0,.565-.565v-3.39A.565.565,0,0,0,15.792,27.41Zm-.565,3.39h-2.26V28.54h2.26Z" transform="translate(-1.738 -3.156)" fill="#1976d2" stroke="#1976d2" stroke-width="0.623"/>
      <path id="Path_18447" data-name="Path 18447" d="M22.644,27.41h-3.39a.565.565,0,0,0-.565.565v3.39a.565.565,0,0,0,.565.565h3.39a.565.565,0,0,0,.565-.565v-3.39A.565.565,0,0,0,22.644,27.41Zm-.565,3.39h-2.26V28.54h2.26Z" transform="translate(-2.056 -3.156)" fill="#1976d2" stroke="#1976d2" stroke-width="0.623"/>
    </g>
  </g>
</svg>
